<?xml version="1.0" encoding="UTF-8" standalone="no"?>
<!-- Created with Inkscape (http://www.inkscape.org/) -->

<svg
   version="1.1"
   id="svg9"
   width="1024"
   height="1024"
   viewBox="0 0 1024 1024"
   sodipodi:docname="four-squares-button-blue.svg"
   inkscape:version="1.2 (dc2aedaf03, 2022-05-15)"
   xmlns:inkscape="http://www.inkscape.org/namespaces/inkscape"
   xmlns:sodipodi="http://sodipodi.sourceforge.net/DTD/sodipodi-0.dtd"
   xmlns="http://www.w3.org/2000/svg"
   xmlns:svg="http://www.w3.org/2000/svg">
  <defs
     id="defs13" />
  <sodipodi:namedview
     id="namedview11"
     pagecolor="#ffffff"
     bordercolor="#000000"
     borderopacity="0.25"
     inkscape:showpageshadow="2"
     inkscape:pageopacity="0.0"
     inkscape:pagecheckerboard="0"
     inkscape:deskcolor="#d1d1d1"
     showgrid="false"
     inkscape:zoom="0.56209465"
     inkscape:cx="1138.5983"
     inkscape:cy="361.14914"
     inkscape:window-width="1920"
     inkscape:window-height="1046"
     inkscape:window-x="-11"
     inkscape:window-y="-11"
     inkscape:window-maximized="1"
     inkscape:current-layer="g264" />
  <g
     inkscape:groupmode="layer"
     inkscape:label="Image"
     id="g15">
    <g
       id="g264"
       transform="translate(-12.453419,-21.348718)">
      <g
         id="g317"
         transform="matrix(3.1235113,0,0,3.1235113,-813.41815,-807.17509)">
        <path
           style="fill:#0000ff;stroke-width:2.51597"
           d="m 302.56759,579.49016 c -12.03482,-2.47815 -13.23097,-8.17534 -13.23097,-63.01804 0,-47.66295 0.33087,-51.34845 5.03194,-56.04952 4.71008,-4.71007 8.38657,-5.03194 57.47738,-5.03194 48.84679,0 52.75086,0.33749 56.89657,4.91846 3.96248,4.37849 4.44099,10.63319 4.35868,56.97366 -0.12079,68.00668 4.90236,62.52939 -57.78419,63.00846 -25.91083,0.198 -49.64806,-0.16246 -52.74941,-0.80108 z"
           id="path246" />
        <path
           style="fill:#0000ff;stroke-width:2.51597"
           d="m 290.73726,407.0274 c -3.23052,-4.61221 -3.91662,-14.48 -3.91662,-56.3306 0,-68.30088 -5.56716,-62.61818 61.34498,-62.61818 68.15037,0 62.39075,-5.7873 62.42125,62.72126 0.0206,46.13227 -0.47958,52.61264 -4.39415,56.93819 -4.1083,4.53962 -8.16436,4.88109 -57.97808,4.88109 -52.49602,0 -53.63862,-0.11115 -57.47738,-5.59176 z"
           id="path248" />
        <path
           style="fill:#0000ff;stroke-width:2.51597"
           d="m 457.07441,408.05768 c -3.52792,-3.8983 -4.16858,-12.17449 -4.40662,-56.92572 -0.36642,-68.88549 -6.11451,-63.05334 62.14448,-63.05334 66.91214,0 61.34498,-5.6827 61.34498,62.61818 0,41.8506 -0.6861,51.71839 -3.91662,56.3306 -3.83877,5.48061 -4.98136,5.59176 -57.47738,5.59176 -48.52412,0 -53.94895,-0.42894 -57.68884,-4.56148 z"
           id="path250" />
        <path
           style="fill:#0000ff;stroke-width:2.51597"
           d="m 464.10921,577.00632 c -10.54625,-4.47694 -11.09504,-7.43083 -11.43552,-61.55207 -0.29284,-46.54781 0.1486,-52.69054 4.10032,-57.05714 4.12251,-4.55533 8.12913,-4.89343 57.98924,-4.89343 52.49602,0 53.63861,0.11116 57.47738,5.59176 3.23052,4.61222 3.91662,14.48001 3.91662,56.33061 0,67.92651 5.05309,62.44711 -58.26983,63.1858 -26.76241,0.3122 -50.9626,-0.41029 -53.77821,-1.60553 z"
           id="path252" />
      </g>
    </g>
  </g>
</svg>
